<?xml version="1.0" encoding="UTF-8"?>
<svg xmlns="http://www.w3.org/2000/svg" id="Ebene_1" version="1.1" viewBox="0 0 375 374.4">
  <defs>
    <style>
      .st0 {
        fill: #fff;
      }

      .st1 {
        fill: #005597;
      }
    </style>
  </defs>
  <polygon class="st1" points="26.5 93.7 26.5 280.7 182.3 374.4 338.4 280.7 338.4 93.7 182.3 0 26.5 93.7"></polygon>
  <path class="st0" d="M255,172.7c0,17.2-5.6,33.1-15.3,46l34.8,35.5c4.7,4.7,4.7,12.3,0,17s-12.3,4.7-17,0l-34.5-35.8c-12.9,9.8-28.8,15.3-46,15.3-43.1,0-78-34.9-78-78s34.9-78,78-78,78,35,78,78ZM138,199.7c0,5,4,9,9,9s9-4,9-9v-24c0-5-4-9-9-9s-9,4-9,9v24ZM168,199.7c0,5,4,9,9,9s9-4,9-9v-60c0-5-4-9-9-9s-9,4-9,9v60ZM198,199.7c0,5,4,9,9,9s9-4,9-9v-36c0-5-4-9-9-9s-9,4-9,9v36Z"></path>
</svg>
